:SAMPLES-PER-SECOND 30
:FULLY-SPECIFIED
:DEGREES
225
root  -39.6043 41.3112 -6.99813 -154.637 -84.9059 151.44
RightUpLeg  0.184066 -9.28044 -6.62558
RightLeg  9.7422 2.65198 2.95162
RightFoot  -5.75744 0.0714496 -2.26138
RightToes  2.91037e-010 0 -3.6325e-017
Spine  2.99485 0.362909 1.45971
Spine1  7.31021 1.05491 -2.20322
HEad  -8.99719 5.33003 1.92086
LeftShoulder1  1.54992 -4.32345 -12.7151
LeftArm  -21.2852 17.0476 -3.09735
LeftForeArm  13.2986 -11.1789 -0.711645
LeftHand  -0.244104 0.0205437 5.32207
RightShoulder  0.568878 0.293376 7.43493
RightArm  -27.0415 -11.1166 7.81773
RightForeArm  -13.3803 7.38056 2.4446
RightHand  -0.976005 1.92504 -15.605
LeftUpLeg  -0.560907 2.85914 -0.851125
LeftLeg  2.23313 11.7127 -3.82531
LeftFoot  0.374392 -0.234415 2.2688
LeftToes  1.46425e-010 1.43544e-010 6.23391e-011
226
root  -39.5761 41.3113 -7.05366 -152.881 -85.1907 149.624
RightUpLeg  0.26639 -9.21733 -6.52622
RightLeg  9.72511 2.26509 2.87788
RightFoot  -5.78819 0.0722385 -2.29261
RightToes  2.91037e-010 0 -3.6325e-017
Spine  3.27969 0.295703 1.10173
Spine1  6.51867 0.853185 -1.74397
HEad  -8.35307 5.36054 1.73715
LeftShoulder1  1.26708 -3.61689 -10.484
LeftArm  -22.5442 16.3801 -2.11002
LeftForeArm  12.3157 -11.4566 -0.452662
LeftHand  -0.244104 0.0205437 5.32207
RightShoulder  0.384419 -0.518137 5.08744
RightArm  -27.04 -10.1978 6.57599
RightForeArm  -12.4934 8.22221 2.64786
RightHand  -1.08851 2.61827 -15.9104
LeftUpLeg  -0.558987 2.87686 -0.779236
LeftLeg  2.23878 11.3774 -3.81998
LeftFoot  0.417806 -0.22493 2.15493
LeftToes  1.46425e-010 1.43544e-010 6.23391e-011
227
root  -39.5477 41.3114 -7.09842 -151.725 -85.3164 148.44
RightUpLeg  0.247429 -9.18669 -6.45594
RightLeg  9.78683 2.08326 2.82305
RightFoot  -5.81836 0.0730323 -2.31796
RightToes  2.91037e-010 0 -3.6325e-017
Spine  3.38304 0.243237 0.965636
Spine1  6.04884 0.782704 -1.71309
HEad  -8.04803 5.35271 1.726
LeftShoulder1  1.03953 -3.07859 -8.25576
LeftArm  -24.2943 15.8869 -1.53086
LeftForeArm  12.2643 -12.0472 -0.156601
LeftHand  -0.244104 0.0205437 5.32207
RightShoulder  0.292059 -0.996838 3.688
RightArm  -27.5061 -9.33626 5.31253
RightForeArm  -12.3665 9.41179 2.84634
RightHand  -1.20909 3.13001 -16.614
LeftUpLeg  -0.579842 2.84611 -0.755817
LeftLeg  2.23582 11.2589 -3.78067
LeftFoot  0.457386 -0.215477 2.03264
LeftToes  1.46425e-010 1.43544e-010 6.23391e-011
228
root  -39.5354 41.3117 -7.13304 -151.062 -85.359 147.762
RightUpLeg  0.231753 -9.17925 -6.41931
RightLeg  9.83669 2.01491 2.80225
RightFoot  -5.84777 0.0740474 -2.34166
RightToes  2.91037e-010 0 -3.6325e-017
Spine  3.22311 0.226507 0.913392
Spine1  5.98062 0.779612 -1.77876
HEad  -7.96856 5.31868 1.72323
LeftShoulder1  0.88774 -2.75625 -6.45576
LeftArm  -26.3734 15.6018 -1.14224
LeftForeArm  12.6852 -13.0762 0.00323475
LeftHand  -0.244104 0.0205437 5.32207
RightShoulder  0.234654 -1.32455 2.66539
RightArm  -28.4624 -8.64645 4.43211
RightForeArm  -12.878 10.8844 3.02959
RightHand  -1.30627 3.31053 -17.5535
LeftUpLeg  -0.591181 2.77312 -0.773871
LeftLeg  2.23973 11.2713 -3.6961
LeftFoot  0.48136 -0.208436 1.94373
LeftToes  1.46425e-010 1.43544e-010 6.23391e-011
229
root  -39.5347 41.312 -7.15859 -150.705 -85.3945 147.391
RightUpLeg  0.2565 -9.16795 -6.38795
RightLeg  9.83999 1.94901 2.79849
RightFoot  -5.87024 0.0760553 -2.37653
RightToes  2.91037e-010 0 -3.6325e-017
Spine  3.08558 0.283503 0.773498
Spine1  5.91318 0.770417 -1.49802
HEad  -7.86358 5.24345 1.48106
LeftShoulder1  0.8245 -2.63166 -5.61791
LeftArm  -27.875 15.1999 -0.651469
LeftForeArm  12.2869 -13.9996 -0.116719
LeftHand  -0.244104 0.0205437 5.32207
RightShoulder  0.171216 -1.74301 1.46751
RightArm  -29.252 -7.94778 4.0948
RightForeArm  -13.0503 12.1757 3.22969
RightHand  -1.47305 3.84243 -18.6295
LeftUpLeg  -0.606096 2.72389 -0.779521
LeftLeg  2.29144 11.2722 -3.62018
LeftFoot  0.483268 -0.206224 1.92247
LeftToes  1.46425e-010 1.43544e-010 6.23391e-011
